<?xml version="1.0" standalone="no"?>
<!DOCTYPE svg PUBLIC "-//W3C//DTD SVG 20010904//EN"
 "http://www.w3.org/TR/2001/REC-SVG-20010904/DTD/svg10.dtd">
<svg version="1.0" xmlns="http://www.w3.org/2000/svg"
 width="16.000000pt" height="16.000000pt" viewBox="0 0 16.000000 16.000000"
 preserveAspectRatio="xMidYMid meet">
<metadata>
Created by potrace 1.11, written by Peter Selinger 2001-2013
</metadata>
<g transform="translate(0.000000,16.000000) scale(0.007619,-0.007619)"
fill="#000000" stroke="none">
<path d="M372 1582 c-47 -5 -75 -50 -69 -115 7 -79 27 -83 27 -6 0 89 16 104
100 96 44 -4 80 -16 137 -47 98 -52 123 -75 123 -113 0 -29 -33 -87 -50 -87
-5 0 -16 25 -25 55 -20 69 -55 95 -130 95 -53 0 -75 -12 -75 -41 0 -9 16 -57
35 -107 69 -180 69 -266 -2 -200 -33 31 -40 14 -9 -22 18 -22 26 -43 26 -68 0
-81 47 -205 100 -266 33 -37 96 -76 125 -76 27 0 16 16 -26 34 -53 24 -79 67
-79 132 0 72 31 118 84 122 71 6 86 -3 86 -49 0 -23 -7 -68 -16 -101 -22 -86
-16 -117 26 -146 19 -12 63 -50 98 -82 54 -53 67 -60 102 -60 22 0 40 5 40 10
0 6 -14 10 -30 10 -17 0 -41 7 -54 15 -24 16 -97 115 -109 148 -9 25 9 65 51
111 21 23 48 58 61 79 12 20 26 37 29 37 4 -1 16 -15 27 -33 45 -70 108 -73
153 -7 13 19 26 36 30 38 4 1 16 -12 26 -29 10 -18 41 -56 67 -86 59 -64 63
-97 21 -164 -46 -71 -91 -109 -129 -109 -18 0 -33 -4 -33 -10 0 -13 56 -13 83
1 12 6 45 34 72 62 28 29 64 60 82 69 45 23 49 53 24 158 -11 49 -21 93 -21
99 0 23 33 41 76 41 55 0 89 -29 100 -84 15 -81 -14 -143 -78 -173 -41 -18
-49 -33 -19 -33 30 0 113 61 143 105 36 52 67 145 75 220 4 45 12 67 31 87 32
34 21 50 -13 18 -30 -28 -55 -20 -55 16 0 15 21 89 47 165 57 167 55 173 -45
167 -55 -4 -68 -8 -88 -32 -13 -15 -29 -47 -35 -72 -6 -24 -17 -44 -24 -44 -7
0 -23 20 -34 44 -29 59 -17 82 69 134 121 72 220 92 260 52 16 -16 20 -33 20
-81 0 -66 14 -72 25 -9 8 49 -9 106 -38 121 -33 18 -115 11 -210 -17 l-87 -27
-63 19 c-83 25 -192 24 -274 -5 -34 -11 -69 -21 -78 -21 -9 0 -44 10 -78 21
-82 29 -191 30 -275 5 l-63 -20 -70 23 c-80 26 -150 37 -197 33z"/>
<path d="M1006 750 c-18 -17 -37 -42 -41 -57 -23 -91 109 -140 168 -61 17 22
18 30 7 62 -12 36 -61 86 -85 86 -8 0 -30 -14 -49 -30z"/>
</g>
</svg>
